<?xml version="1.0" standalone="no"?><!DOCTYPE svg PUBLIC "-//W3C//DTD SVG 1.1//EN" "http://www.w3.org/Graphics/SVG/1.1/DTD/svg11.dtd"><svg t="1587109717539" class="icon" viewBox="0 0 1024 1024" version="1.1" xmlns="http://www.w3.org/2000/svg" p-id="3748" xmlns:xlink="http://www.w3.org/1999/xlink" width="200" height="200"><defs><style type="text/css"></style></defs><path d="M822.2 456.6l-0.1-53.7H589.5l-25 75.1-143.2-214.6-46.5 139.5H213.7v53.7h196.9l25-75.1 143.2 214.6 46.6-139.5h196.8z m-260.5 304V860h174c13.7 0 24.9 11.1 24.9 24.9 0 13.7-11.1 24.9-24.9 24.9H288.3c-13.7 0-24.9-11.1-24.9-24.9 0-13.7 11.1-24.9 24.9-24.9h174v-99.4h-348c-27.5 0-49.7-22.3-49.7-49.7V164c0-27.5 22.3-49.7 49.7-49.7h795.5c27.5 0 49.7 22.3 49.7 49.7v546.9c0 27.5-22.3 49.7-49.7 49.7H561.7z" p-id="3749"></path></svg>