<?xml version="1.0" standalone="no"?><!DOCTYPE svg PUBLIC "-//W3C//DTD SVG 1.1//EN" "http://www.w3.org/Graphics/SVG/1.1/DTD/svg11.dtd"><svg t="1587108618811" class="icon" viewBox="0 0 1024 1024" version="1.1" xmlns="http://www.w3.org/2000/svg" p-id="2138" xmlns:xlink="http://www.w3.org/1999/xlink" width="200" height="200"><defs><style type="text/css"></style></defs><path d="M437.248 521.216c1.024 0 2.048 0 2.56-0.512 2.56-0.512 4.608-0.512 7.168-1.024 1.024 0 2.56-0.512 3.584-0.512 2.048-0.512 4.096-0.512 6.144-1.024 3.072-0.512 6.144-1.536 9.216-2.048 1.024 0 1.536-0.512 2.56-0.512 2.56-0.512 5.12-1.536 7.68-2.048 1.024 0 1.536-0.512 2.56-1.024 2.56-1.024 5.632-1.536 8.192-2.56 0.512 0 1.024-0.512 1.536-0.512 3.072-1.024 6.144-2.56 9.216-3.584C578.56 471.04 635.392 391.168 635.392 297.472c0-81.408-43.52-153.088-108.032-192.512-3.072-2.048-6.144-3.584-9.728-5.632l-1.024-0.512c-8.704-4.608-17.92-8.704-27.136-12.288-1.024-0.512-2.048-1.024-3.072-1.024-4.096-1.536-8.192-2.56-12.288-4.096-2.56-0.512-5.12-1.536-7.68-2.048l-6.144-1.536c-3.584-1.024-7.168-1.536-10.752-2.048-2.56-0.512-5.12-1.024-7.168-1.024-2.048-0.512-4.096-0.512-5.632-0.512-2.56-0.512-5.632-0.512-8.192-1.024-1.536 0-3.584-0.512-5.12-0.512-4.096 0-8.192-0.512-12.8-0.512h-1.024c-124.416 0-225.28 100.864-225.28 225.28 0 118.272 91.136 215.04 206.848 224.768 6.144 0.512 12.288 1.024 18.432 1.024 6.656 0 12.8-0.512 19.456-1.024 3.072 0 5.632-0.512 8.192-1.024z" p-id="2139"></path><path d="M537.088 492.032c-5.632-2.048-11.264-3.584-16.896-5.12-4.608-1.024-8.704-2.56-13.312-3.584-1.024-0.512-2.048-0.512-3.072-0.512-8.192-2.048-15.872-3.584-24.064-5.12-1.536-0.512-3.584-0.512-5.12-1.024l-9.216-1.536c-3.072-0.512-6.656-1.024-9.728-1.024-6.656-0.512-13.312-1.536-19.968-1.536-2.048 0-4.608-0.512-6.656-0.512-6.144-0.512-12.8-0.512-18.944-0.512s-12.8 0-18.944 0.512c-2.048 0-4.608 0.512-6.656 0.512l-19.968 1.536c-3.072 0.512-6.656 1.024-9.728 1.024l-9.216 1.536c-1.536 0.512-3.584 0.512-5.12 1.024-8.192 1.536-16.384 3.072-24.064 5.12-1.024 0.512-2.048 0.512-3.072 0.512-5.632 1.536-10.752 2.56-16.384 4.096-4.608 1.536-9.216 2.56-13.824 4.096C138.752 539.136 29.696 663.552 5.632 816.64c-0.512 3.072-1.024 6.144-1.536 8.704-1.024 7.168-1.536 13.824-2.56 20.992v1.024c-1.024 10.752-1.536 22.016-1.536 32.768V889.856c0.512 14.336 1.536 28.672 3.072 43.008h813.056c2.048-16.896 3.072-33.792 3.072-51.2 0.512-181.76-117.76-335.872-282.112-389.632z" p-id="2140"></path><path d="M1024.512 794.624c-0.512-169.984-130.56-309.248-296.448-325.12-10.24 1.536-20.48 2.56-31.232 2.56s-20.992-1.024-31.232-2.56c-12.8 1.024-25.6 3.072-37.888 5.632 23.04 12.288 45.056 27.136 66.048 43.008 4.096 3.072 7.68 6.144 11.776 9.216 1.024 1.024 2.048 1.536 3.072 2.56l13.824 12.288c1.024 1.024 2.048 1.536 3.072 2.56l10.752 10.752 3.072 3.072c4.096 4.608 8.704 8.704 12.8 13.312l1.536 1.536c3.584 4.096 7.168 8.192 10.752 12.8 1.024 1.024 1.536 2.048 2.56 3.072 16.896 20.48 31.744 42.496 45.056 66.048l1.536 2.56c3.072 5.632 6.144 10.752 8.704 16.384l0.512 0.512c3.072 6.144 5.632 12.288 8.704 17.92l0.512 1.536c2.56 5.632 5.12 11.776 7.168 17.408l0.512 1.024c2.56 6.144 4.608 12.8 7.168 19.456 2.048 6.144 4.096 12.8 6.144 18.944l0.512 1.536c3.584 13.312 7.168 26.112 9.728 39.424 3.584 17.408 5.632 34.816 7.168 52.224H1024.512v-49.664z m-422.912-348.672c1.536 1.024 3.072 2.048 5.12 3.072-1.536-1.536-3.584-2.048-5.12-3.072z" p-id="2141"></path><path d="M700.416 523.264c9.216 0 18.432-1.024 27.648-2.56h-2.048c87.552-14.336 154.624-90.112 154.624-181.76 0-73.216-42.496-136.192-103.936-165.888-25.088-11.776-52.224-17.92-79.36-17.92-15.872 0-31.744 2.048-46.592 6.144 8.704 14.848 15.872 30.72 21.504 47.104 3.584 10.752 6.656 21.504 9.216 32.256 1.536 7.168 2.56 14.848 3.584 22.016v1.536c1.024 6.656 1.536 13.312 1.536 19.968v13.824c0 4.608 0 8.704-0.512 13.312v4.096c0 3.072-0.512 6.144-0.512 9.216 0 1.536 0 2.56-0.512 4.096-0.512 3.584-1.024 7.68-1.536 11.264v1.536c-0.512 4.096-1.536 8.192-2.56 12.8 0 1.024-0.512 2.56-1.024 3.584-0.512 3.072-1.536 6.144-2.048 9.216-0.512 1.536-0.512 2.56-1.024 4.096-1.024 3.584-2.048 6.656-3.072 10.24 0 0.512-0.512 1.536-0.512 2.048-1.536 4.096-2.56 8.192-4.096 11.776-0.512 1.024-1.024 2.048-1.024 3.072-2.56 7.168-6.144 14.336-9.216 21.504-0.512 0.512-0.512 1.536-1.024 2.048-2.048 3.584-3.584 7.68-5.632 11.264-0.512 0.512-1.024 1.536-1.024 2.048-1.536 3.072-3.584 6.144-5.12 8.704l-1.536 3.072c-2.048 3.072-3.584 5.632-5.632 8.704-0.512 0.512-1.024 1.024-1.024 1.536-4.096 5.632-8.192 11.264-12.8 16.896 25.6 13.312 51.2 30.208 75.264 49.152z" p-id="2142"></path></svg>